<?xml version="1.0" encoding="utf-8"?>
<svg version="1.1" id="Layer_1" xmlns="http://www.w3.org/2000/svg" xmlns:xlink="http://www.w3.org/1999/xlink" x="0px" y="0px" viewBox="67.5 96.9 364 206.7" style="enable-background:new 0 0 500 500;" xml:space="preserve">
<style type="text/css">
	.st0{fill:#364548;}
	.st1{fill:#22A0C8;}
	.st2{fill:#37B1D9;}
	.st3{fill:#1B81A5;}
	.st4{fill:#1D91B4;}
	.st5{fill:#23A3C2;}
	.st6{fill:#34BBDE;}
	.st7{fill:#D3ECEC;}
	.st8{fill:#BDD9D7;}
</style>
<g id="XMLID_1_">
	<path id="XMLID_13_" class="st0" d="M278,162.2h32.6v33.4h16.5c7.6,0,15.5-1.4,22.7-3.8c3.5-1.2,7.5-2.9,11-5
		c-4.6-6-7-13.6-7.7-21.1c-0.9-10.2,1.1-23.4,8-31.4l3.4-4l4.1,3.3c10.3,8.3,19,19.8,20.5,33c12.4-3.6,26.9-2.8,37.9,3.5l4.5,2.6
		l-2.4,4.6c-9.2,18-28.6,23.6-47.4,22.6c-28.3,70.4-89.8,103.7-164.4,103.7c-38.5,0-73.9-14.4-94-48.6l-0.3-0.6l-2.9-6
		c-6.8-15.1-9.1-31.5-7.5-48l0.5-4.9h27.9v-33.4h32.6v-32.6h65.3V96.9H278V162.2"></path>
	<path id="XMLID_14_" class="st1" d="M383.8,174.5c2.2-17-10.5-30.4-18.4-36.7c-9.1,10.5-10.5,38.1,3.8,49.7
		c-8,7.1-24.8,13.5-41.9,13.5H118c-1.7,17.9,1.5,34.5,8.7,48.6l2.4,4.4c1.5,2.6,3.2,5,4.9,7.4h0c8.6,0.6,16.5,0.7,23.8,0.6h0
		c14.3-0.3,25.9-2,34.7-5.1c1.3-0.5,2.7,0.2,3.2,1.6c0.5,1.3-0.2,2.7-1.6,3.2c-1.2,0.4-2.4,0.8-3.7,1.1l0,0c-6.9,2-14.4,3.3-24,3.9
		c0.6,0-0.6,0.1-0.6,0.1c-0.3,0-0.7,0.1-1.1,0.1c-3.8,0.2-7.9,0.3-12,0.3c-4.6,0-9.1-0.1-14.1-0.3l-0.1,0.1
		c17.4,19.6,44.7,31.3,78.8,31.3c72.3,0,133.6-32.1,160.8-104c19.3,2,37.8-2.9,46.2-19.4C411,167.1,393.7,169.5,383.8,174.5"></path>
	<path id="XMLID_15_" class="st2" d="M383.8,174.5c2.2-17-10.5-30.4-18.4-36.7c-9.1,10.5-10.5,38.1,3.8,49.7
		c-8,7.1-24.8,13.5-41.9,13.5H130.4c-0.9,27.5,9.3,48.3,27.4,60.9h0c14.3-0.3,25.9-2,34.7-5.1c1.3-0.5,2.7,0.2,3.2,1.6
		c0.5,1.3-0.2,2.7-1.6,3.2c-1.2,0.4-2.4,0.8-3.7,1.1l0,0c-6.9,2-15,3.5-24.6,4.1l-0.2-0.2c24.6,12.6,60.3,12.6,101.2-3.1
		c45.9-17.6,88.5-51.2,118.3-89.6C384.7,174.1,384.2,174.3,383.8,174.5"></path>
	<path id="XMLID_16_" class="st3" d="M118.4,222.8c1.3,9.6,4.1,18.6,8.3,26.8l2.4,4.4c1.5,2.6,3.2,5,4.9,7.4
		c8.6,0.6,16.5,0.7,23.8,0.6c14.3-0.3,25.9-2,34.7-5.1c1.3-0.5,2.7,0.2,3.2,1.6c0.5,1.3-0.2,2.7-1.6,3.2c-1.2,0.4-2.4,0.8-3.7,1.1
		l0,0c-6.9,2-15,3.4-24.6,4c-0.3,0-0.9,0-1.2,0c-3.8,0.2-7.8,0.3-12,0.3c-4.6,0-9.2-0.1-14.2-0.3c17.4,19.6,44.9,31.4,79,31.4
		c61.9,0,115.8-23.5,147-75.4H118.4"></path>
	<path id="XMLID_17_" class="st4" d="M132.3,222.8c3.7,16.9,12.6,30.1,25.5,39.1c14.3-0.3,25.9-2,34.7-5.1c1.3-0.5,2.7,0.2,3.2,1.6
		c0.5,1.3-0.2,2.7-1.6,3.2c-1.2,0.4-2.4,0.8-3.7,1.1l0,0c-6.9,2-15.2,3.4-24.8,4c24.6,12.6,60.2,12.4,101.1-3.3
		c24.7-9.5,48.6-23.7,69.9-40.7H132.3"></path>
	<path id="XMLID_25_" class="st5" d="M146.4,167.6h28.3v28.3h-28.3V167.6z M148.7,170h2.2v23.6h-2.2V170z M152.9,170h2.3v23.6h-2.3
		V170z M157.2,170h2.3v23.6h-2.3V170z M161.5,170h2.3v23.6h-2.3V170z M165.8,170h2.3v23.6h-2.3V170z M170.1,170h2.2v23.6h-2.2V170z"></path>
	<path id="XMLID_33_" class="st5" d="M179,135h28.3v28.3H179V135z M181.4,137.3h2.2v23.6h-2.2V137.3z M185.6,137.3h2.3v23.6h-2.3
		V137.3z M189.9,137.3h2.3v23.6h-2.3V137.3z M194.2,137.3h2.3v23.6h-2.3V137.3z M198.4,137.3h2.3v23.6h-2.3V137.3z M202.7,137.3h2.2
		v23.6h-2.2V137.3z"></path>
	<path id="XMLID_41_" class="st6" d="M179,167.6h28.3v28.3H179V167.6z M181.4,170h2.2v23.6h-2.2V170z M185.6,170h2.3v23.6h-2.3V170z
		 M189.9,170h2.3v23.6h-2.3V170z M194.2,170h2.3v23.6h-2.3V170z M198.4,170h2.3v23.6h-2.3V170z M202.7,170h2.2v23.6h-2.2V170z"></path>
	<path id="XMLID_49_" class="st5" d="M211.7,167.6H240v28.3h-28.3V167.6z M214,170h2.2v23.6H214V170z M218.2,170h2.3v23.6h-2.3V170z
		 M222.5,170h2.3v23.6h-2.3V170z M226.8,170h2.3v23.6h-2.3V170z M231.1,170h2.3v23.6h-2.3V170z M235.4,170h2.2v23.6h-2.2V170z"></path>
	<path id="XMLID_57_" class="st6" d="M211.7,135H240v28.3h-28.3V135z M214,137.3h2.2v23.6H214V137.3z M218.2,137.3h2.3v23.6h-2.3
		V137.3z M222.5,137.3h2.3v23.6h-2.3V137.3z M226.8,137.3h2.3v23.6h-2.3V137.3z M231.1,137.3h2.3v23.6h-2.3V137.3z M235.4,137.3h2.2
		v23.6h-2.2V137.3z"></path>
	<path id="XMLID_65_" class="st6" d="M244.3,167.6h28.3v28.3h-28.3V167.6z M246.7,170h2.2v23.6h-2.2V170z M250.9,170h2.3v23.6h-2.3
		V170z M255.2,170h2.3v23.6h-2.3V170z M259.4,170h2.3v23.6h-2.3V170z M263.7,170h2.3v23.6h-2.3V170z M268,170h2.2v23.6H268V170z"></path>
	<path id="XMLID_73_" class="st5" d="M244.3,135h28.3v28.3h-28.3V135z M246.7,137.3h2.2v23.6h-2.2V137.3z M250.9,137.3h2.3v23.6
		h-2.3V137.3z M255.2,137.3h2.3v23.6h-2.3V137.3z M259.4,137.3h2.3v23.6h-2.3V137.3z M263.7,137.3h2.3v23.6h-2.3V137.3z M268,137.3
		h2.2v23.6H268V137.3z"></path>
	<path id="XMLID_81_" class="st6" d="M244.3,102.3h28.3v28.3h-28.3V102.3z M246.7,104.7h2.2v23.6h-2.2V104.7z M250.9,104.7h2.3v23.6
		h-2.3V104.7z M255.2,104.7h2.3v23.6h-2.3V104.7z M259.4,104.7h2.3v23.6h-2.3V104.7z M263.7,104.7h2.3v23.6h-2.3V104.7z M268,104.7
		h2.2v23.6H268V104.7z"></path>
	<path id="XMLID_89_" class="st5" d="M277,167.6h28.3v28.3H277V167.6z M279.3,170h2.2v23.6h-2.2V170z M283.5,170h2.3v23.6h-2.3V170z
		 M287.8,170h2.3v23.6h-2.3V170z M292.1,170h2.3v23.6h-2.3V170z M296.4,170h2.3v23.6h-2.3V170z M300.7,170h2.2v23.6h-2.2V170z"></path>
	<path id="XMLID_90_" class="st7" d="M205.6,241.8c4.3,0,7.8,3.5,7.8,7.8s-3.5,7.8-7.8,7.8c-4.3,0-7.8-3.5-7.8-7.8
		S201.2,241.8,205.6,241.8"></path>
	<path id="XMLID_91_" class="st0" d="M205.6,244c0.7,0,1.4,0.1,2,0.4c-0.7,0.4-1.1,1.1-1.1,2c0,1.3,1,2.3,2.3,2.3
		c0.9,0,1.6-0.5,2-1.2c0.3,0.7,0.4,1.4,0.4,2.1c0,3.1-2.5,5.6-5.6,5.6c-3.1,0-5.6-2.5-5.6-5.6C200,246.5,202.5,244,205.6,244"></path>
	<path id="XMLID_92_" class="st0" d="M67.5,225.6h363.1c-7.9-2-25-4.7-22.2-15.1c-14.4,16.6-49,11.7-57.8,3.5
		c-9.7,14.1-66.5,8.8-70.4-2.2c-12.2,14.3-50.1,14.3-62.3,0c-4,11-60.7,16.4-70.4,2.2c-8.7,8.2-43.4,13.2-57.8-3.5
		C92.5,220.9,75.4,223.6,67.5,225.6"></path>
	<path id="XMLID_93_" class="st8" d="M226.3,298c-19.3-9.2-29.9-21.6-35.8-35.3c-7.2,2-15.8,3.4-25.8,3.9c-3.8,0.2-7.8,0.3-11.9,0.3
		c-4.8,0-9.9-0.1-15.2-0.4c17.7,17.7,39.5,31.4,79.9,31.6C220.4,298.2,223.4,298.1,226.3,298"></path>
	<path id="XMLID_94_" class="st7" d="M197.6,275.3c-2.7-3.6-5.3-8.2-7.2-12.6c-7.2,2.1-15.8,3.4-25.8,3.9
		C171.5,270.4,181.4,273.9,197.6,275.3"></path>
</g>
</svg>